<svg id="Layer_1" data-name="Layer 1" xmlns="http://www.w3.org/2000/svg" viewBox="0 0 481.73 586.78">
  <defs>
    <style>
      .cls-1 {
        fill: #f93c2c;
      }

      .cls-2 {
        fill: #fbfbfb;
      }

      .cls-3 {
        fill: #f7f6f7;
      }

      .cls-4 {
        fill: #111620;
      }
    </style>
  </defs>
  <path class="cls-1" d="M121.27,463.13Q51.51,420.37,19.79,344.94C-3.92,288.28-6.34,230.48,12.61,172.09,31.66,113.43,67,67.17,120.18,35.33c35-21,73-33.95,113.89-35.18,94.56-2.84,169.51,34.39,222.75,113,9.52,14.06,15.67,30.41,23.32,45.73a34.54,34.54,0,0,1,1.59,5c-14.15.79-27.58,3.62-39.75,9.88-10.59,5.44-20.32,12.58-30.42,19q-5-13.22-10-26.44C424.51,162,440.39,143,438.2,122l-7,6.09c4.13-21.93-.62-39.75-17.45-53.71-1.14,8-3.4,15-10.95,20.12-1.48-13.39-6.94-24.1-17.17-32-3.29-2.52-7.18-4.25-12.23-7.17,1,9.81-1.31,16.54-8.24,21.08-.41-.26-.82-.36-.93-.61-10.1-22.36-34.43-26.92-52-25.54-12.72,1-24.21,5.73-35.6,11-3.86,1.78-7.82,3.31-12.11,5.11.76-5.81,1.43-10.93,2.2-16.88-1.92.53-2.78.54-3.34,1-13.42,9.89-28.85,14.09-45.06,16.32-25.6,3.51-50.08,16.9-60.29,47.7-3.47-4.7-3.84-8.12-2.21-20.76-8.64,3.42-13.72,14.81-14.73,33.41a52.23,52.23,0,0,0-7-1.88c-2.38-.33-4.84-.07-8.26-.07,4.89,7.78,9.33,14.86,14,22.23-15.38,4.51-26.06,13.32-30.92,29.6l5.64-.94,0-.06c-1.21,2.61-2.62,5.16-3.58,7.87-2.24,6.28-4.25,12.64-6.36,19l1.36.64L118,197.64c.19.2.39.4.59.59-6.4,15-8.42,30.35-3,46.09a34.7,34.7,0,0,0,6.19,10.56c.49-1.23,1-2.45,1.86-4.63,3.95,18,11.81,32.44,20.31,46.55,12.45,20.69,24,41.78,30.83,65.12,1.26,4.3,2.22,8.7,3.61,12.95.43,1.33,1.8,2.36,2.75,3.52l-7,32.88c-4-1-8-2.11-12.06-2.9-3.35-.64-6.9-.82-8.53,3.13-5.76,13.93-11.39,27.91-17.08,41.88Z"/>
  <path class="cls-2" d="M174.22,411.27l7-32.88c17.87-6.84,28.76-20.27,34-38,3.77-12.73,6-25.91,8.71-38.94.34-1.67-.89-3.7-1.51-5.52-2.72-8-6.68-15.77-8-24-2.47-15.73,8.69-29.64,22.93-29.72,4.18,0,8.52,1.31,12.5,2.78,5.55,2,10.72,5.07,16.25,7.18,10.75,4.11,17.72,11.15,20.29,22.69,6.27,28.1,9,56.16,1.69,84.55-3.49,13.61.93,25.11,12.55,32.6,12,7.73,24.86,14.09,37.37,21,2.32,1.28,4.78,2.32,7.11,3.45-9.37,22.25-18.68,44.34-28,66.44-.33.77-.45,1.63-.83,2.35-2.68,5.15-1,8.85,2.72,13.15,20.76,23.89,35.43,51.36,46.3,81a18.5,18.5,0,0,1,1.47,7.42c-.86-1.42-1.71-2.85-2.58-4.26-35.49-57.87-80.42-106.81-137.09-144.58a222,222,0,0,0-50.74-25.55A16.15,16.15,0,0,1,174.22,411.27ZM272.33,326c-14.29,6.9-24-2.66-34.77-9.55,3.82,5.34,7.74,10.48,12.68,14.29,8.14,6.28,16.79,4.35,22.78-4.13l.35-1.17Z"/>
  <path class="cls-2" d="M401.52,166.29q5,13.22,10,26.44c1,2.25,1.84,4.53,2.91,6.72q2.94,6.06,6,12c4.17,8,5.58,15.79-.28,23.87-3.26,4.49-1.86,8.88,1.8,13.09,9.39,10.81,18.57,21.82,27.62,32.92,6.3,7.74,4.47,15.66-4.5,20.1-3,1.47-6.35,2.06-9.32,3.51-12.27,6-24.6,11.93-36.61,18.43-6.45,3.49-7.74,10.33-9,17.06-.74,4-2.58,7.9-4.36,13.12-3.52-4.42-6.18-7.18-8.17-10.37-5-7.94-12.23-12.91-20.26-17.22-6.88-3.7-13.53-7.85-20.17-12-16-9.93-27-23.1-27.34-43-.19-10.8-.89-21.6-.79-32.39.06-6.76,3.46-12.44,8.18-17.19a82.5,82.5,0,0,1,9.55-8.79c11.34-8.25,13.11-19.3,10.05-32-2.12-8.78-2.33-9.4,6.14-12.68a299.3,299.3,0,0,1,34.53-11.14,29.09,29.09,0,0,1,15.68.91C396.63,158.86,398.82,163.32,401.52,166.29Z"/>
  <path class="cls-3" d="M121.27,463.13l15.28-9.75c20.46,3.26,39.91,9.37,57.86,19.84-15.67-3.48-31.18-4.41-46.81-.32-19.07,5-34.63,15.9-48.84,29C86.2,513.5,75.92,527,66.74,541.35a44.15,44.15,0,0,1-3.37,4.14l-1.57-1c4.86-9.88,9.37-20,14.66-29.61C87.66,494.47,103.36,477.81,121.27,463.13Z"/>
  <path class="cls-3" d="M429.13,339.22c3.14,4.43,6.48,8.57,3.83,14.84a50.57,50.57,0,0,1-5.63,0c-5.2-.57-6.9,2.5-7,6.85,0,2.79,1.07,5.64.81,8.38s-1,5.76-2.7,7.47c-.93.92-4.6-.19-6.62-1.21-6.16-3.12-9.44-8.39-9.34-15.32.18-11.57,3.74-21.25,15.61-25.88,4.94-1.93,9.84-4,14.79-6C436.39,331.26,436.37,331.31,429.13,339.22Z"/>
  <path class="cls-1" d="M114.44,176.07l1-.61.1.43-1.14.12Z"/>
  <path class="cls-1" d="M118,197.64l1.07,0-.48.64C118.41,198,118.21,197.84,118,197.64Z"/>
  <path class="cls-4" d="M272.33,326l1-.56c-.12.39-.23.78-.35,1.17C272.78,326.38,272.55,326.17,272.33,326Z"/>
</svg>
