<svg id="Layer_1" data-name="Layer 1" xmlns="http://www.w3.org/2000/svg" viewBox="0 0 660 660">
  <defs>
    <style>
      .cls-1 {
        fill: #f93c2c;
      }

      .cls-2 {
        fill: #fbfbfb;
      }

      .cls-3 {
        fill: #f7f6f7;
      }

      .cls-4 {
        fill: #111620;
      }
    </style>
  </defs>
  <rect width="660" height="660" rx="95.86"/>
  <g>
    <path class="cls-1" d="M210.4,499.74Q140.65,457,108.93,381.55C85.21,324.89,82.8,267.09,101.75,208.7c19-58.66,54.41-104.92,107.57-136.76,35-21,73-33.95,113.89-35.18,94.55-2.84,169.51,34.39,222.75,113,9.52,14.06,15.67,30.41,23.31,45.73a34.54,34.54,0,0,1,1.59,5c-14.14.79-27.57,3.62-39.75,9.88-10.59,5.44-20.31,12.58-30.42,19l-10-26.44c23-4.33,38.87-23.26,36.67-44.26l-7,6.09c4.13-21.93-.62-39.75-17.46-53.71-1.14,8-3.4,15-10.94,20.12-1.49-13.39-6.94-24.1-17.18-32-3.28-2.52-7.17-4.25-12.22-7.17,1,9.81-1.32,16.54-8.24,21.08-.42-.26-.83-.36-.93-.61-10.1-22.36-34.43-26.92-52-25.54-12.72,1-24.21,5.73-35.59,11-3.86,1.78-7.83,3.31-12.11,5.11.75-5.81,1.42-10.93,2.2-16.88-1.92.53-2.78.54-3.35.95-13.41,9.89-28.84,14.09-45.05,16.32-25.6,3.51-50.08,16.9-60.29,47.7-3.48-4.7-3.84-8.12-2.22-20.76-8.63,3.42-13.72,14.81-14.72,33.41a52.63,52.63,0,0,0-7-1.88c-2.38-.33-4.84-.07-8.26-.07,4.89,7.78,9.33,14.86,14,22.23-15.39,4.51-26.06,13.32-30.92,29.6l5.63-.94,0-.06c-1.21,2.61-2.62,5.16-3.58,7.87-2.24,6.28-4.26,12.64-6.36,19l1.36.64,12.21-5.85c.19.2.38.4.58.59-6.4,15-8.42,30.35-3,46.09A34.61,34.61,0,0,0,211,291.49l1.85-4.63c3.95,18,11.81,32.44,20.31,46.55,12.45,20.69,24,41.78,30.84,65.12,1.25,4.3,2.22,8.7,3.6,13,.44,1.33,1.81,2.36,2.76,3.52l-7,32.88c-4-1-8-2.11-12.06-2.9-3.35-.64-6.9-.82-8.53,3.13C237,462,231.37,476,225.69,490Z"/>
    <path class="cls-2" d="M263.36,447.88l7-32.88c17.86-6.84,28.75-20.27,34-38,3.77-12.73,6-25.91,8.71-38.94.34-1.67-.89-3.7-1.51-5.52-2.71-8-6.67-15.77-8-24-2.46-15.73,8.69-29.64,22.93-29.72,4.18,0,8.52,1.31,12.51,2.78,5.54,2,10.72,5.07,16.24,7.18,10.76,4.11,17.73,11.15,20.3,22.69,6.27,28.1,9,56.16,1.69,84.55-3.5,13.61.93,25.11,12.55,32.6,12,7.73,24.86,14.09,37.37,21,2.32,1.28,4.77,2.32,7.11,3.45-9.38,22.25-18.69,44.34-28,66.44-.32.77-.44,1.62-.82,2.35-2.68,5.15-1,8.84,2.71,13.15,20.77,23.89,35.44,51.36,46.31,81a18.5,18.5,0,0,1,1.47,7.42c-.86-1.42-1.71-2.85-2.58-4.26C417.89,561.26,373,512.32,316.28,474.55A221.8,221.8,0,0,0,265.54,449,16.65,16.65,0,0,1,263.36,447.88Zm98.11-85.31c-14.29,6.9-24-2.66-34.77-9.55,3.82,5.34,7.73,10.48,12.68,14.29,8.13,6.28,16.79,4.35,22.77-4.13l.36-1.17Z"/>
    <path class="cls-2" d="M490.66,202.9l10,26.44c1,2.25,1.85,4.53,2.91,6.72q2.94,6.06,6.06,12c4.16,8,5.58,15.79-.29,23.87-3.26,4.49-1.85,8.88,1.8,13.09,9.39,10.81,18.58,21.82,27.62,32.92,6.31,7.74,4.47,15.66-4.5,20.1-3,1.47-6.35,2.06-9.31,3.51-12.28,6-24.61,11.93-36.62,18.43-6.44,3.49-7.74,10.33-9,17.06-.74,4.05-2.57,7.9-4.35,13.12-3.52-4.42-6.19-7.18-8.18-10.37-5-7.94-12.22-12.91-20.26-17.22-6.88-3.7-13.52-7.85-20.17-12-16-9.93-27-23.1-27.33-43.05-.19-10.8-.89-21.6-.8-32.39.06-6.76,3.47-12.45,8.18-17.19a81.78,81.78,0,0,1,9.56-8.79c11.34-8.25,13.11-19.3,10-32-2.12-8.78-2.33-9.4,6.15-12.68a299.77,299.77,0,0,1,34.52-11.14,29.12,29.12,0,0,1,15.69.91C485.76,195.47,488,199.93,490.66,202.9Z"/>
    <path class="cls-3" d="M210.4,499.74,225.69,490c20.45,3.26,39.9,9.37,57.86,19.84-15.67-3.48-31.18-4.41-46.81-.32-19.07,5-34.64,15.9-48.84,29-12.56,11.59-22.84,25.08-32,39.44a45.79,45.79,0,0,1-3.37,4.14l-1.58-1c4.87-9.88,9.38-20,14.67-29.61C176.8,531.08,192.49,514.42,210.4,499.74Z"/>
    <path class="cls-3" d="M518.26,375.83c3.15,4.43,6.49,8.57,3.84,14.84a50.56,50.56,0,0,1-5.63,0c-5.21-.57-6.9,2.5-7,6.85,0,2.79,1.06,5.64.8,8.38s-1,5.76-2.7,7.47c-.92.92-4.59-.19-6.61-1.21-6.16-3.12-9.45-8.39-9.34-15.32.18-11.57,3.74-21.25,15.61-25.88,4.94-1.93,9.83-4,14.78-6C525.52,367.87,525.51,367.92,518.26,375.83Z"/>
    <path class="cls-1" d="M203.57,212.68l1-.61.1.43-1.14.12Z"/>
    <path class="cls-1" d="M207.16,234.25l1.07-.05c-.16.21-.33.42-.49.64C207.54,234.65,207.35,234.45,207.16,234.25Z"/>
    <path class="cls-4" d="M361.47,362.57l1-.56-.36,1.17C361.92,363,361.69,362.78,361.47,362.57Z"/>
  </g>
</svg>
