<svg id="Layer_1" data-name="Layer 1" xmlns="http://www.w3.org/2000/svg" viewBox="0 0 800 800">
  <defs>
    <style>
      .cls-1 {
        fill: #f93c2c;
      }

      .cls-2 {
        fill: #fbfbfb;
      }

      .cls-3 {
        fill: #f7f6f7;
      }

      .cls-4 {
        fill: #111620;
      }
    </style>
  </defs>
  <rect width="800" height="800"/>
  <path class="cls-1" d="M270.84,536.07Q201.08,493.3,169.36,417.88c-23.71-56.66-26.13-114.46-7.17-172.85,19-58.66,54.4-104.92,107.56-136.76,35-21,73-33.95,113.9-35.18,94.55-2.84,169.51,34.39,222.74,113,9.53,14.06,15.67,30.41,23.32,45.73a34.54,34.54,0,0,1,1.59,5c-14.15.79-27.57,3.62-39.75,9.88-10.59,5.44-20.31,12.58-30.42,19q-5-13.22-10-26.44C574.08,234.9,590,216,587.77,195l-7,6.09c4.13-21.93-.63-39.75-17.46-53.71-1.14,8-3.4,15.05-10.94,20.12-1.49-13.39-6.94-24.1-17.18-32-3.28-2.52-7.17-4.25-12.23-7.17,1,9.81-1.31,16.54-8.24,21.08-.41-.26-.82-.36-.93-.61-10.09-22.36-34.42-26.92-52-25.54-12.72,1-24.21,5.73-35.6,11-3.85,1.78-7.82,3.31-12.11,5.11.76-5.81,1.43-10.93,2.2-16.88-1.92.53-2.78.54-3.34,1-13.42,9.89-28.85,14.09-45.05,16.32-25.6,3.51-50.08,16.9-60.29,47.7-3.48-4.7-3.84-8.12-2.22-20.76-8.64,3.42-13.72,14.81-14.73,33.41a51.84,51.84,0,0,0-7-1.88c-2.38-.33-4.84-.07-8.25-.07l13.95,22.23c-15.39,4.51-26.06,13.32-30.93,29.6L264,249,264,249c-1.2,2.61-2.62,5.16-3.58,7.87-2.23,6.28-4.25,12.64-6.36,19l1.37.64,12.2-5.85.59.59c-6.4,15-8.42,30.35-3,46.09a34.29,34.29,0,0,0,6.19,10.56l1.85-4.63c3.95,18,11.81,32.44,20.31,46.55,12.45,20.69,24,41.78,30.83,65.12,1.26,4.3,2.22,8.7,3.61,12.95.43,1.33,1.81,2.36,2.75,3.52q-3.48,16.44-6.95,32.88c-4-1-8-2.11-12.07-2.9-3.35-.64-6.9-.82-8.53,3.13-5.75,13.93-11.39,27.91-17.07,41.88Z"/>
  <path class="cls-2" d="M323.8,484.21q3.48-16.44,6.95-32.88c17.87-6.84,28.76-20.27,34-38,3.77-12.73,6-25.91,8.71-38.94.34-1.67-.89-3.7-1.51-5.52-2.72-8-6.68-15.77-8-24-2.46-15.73,8.69-29.64,22.93-29.72,4.18,0,8.52,1.31,12.51,2.78,5.54,2,10.72,5.07,16.24,7.18,10.75,4.11,17.72,11.15,20.3,22.69,6.26,28.1,9,56.16,1.69,84.55-3.5,13.61.93,25.11,12.54,32.6,12,7.73,24.86,14.09,37.37,21,2.33,1.28,4.78,2.32,7.11,3.45-9.37,22.25-18.68,44.34-28,66.44-.32.77-.45,1.63-.83,2.35-2.67,5.15-1,8.85,2.72,13.15,20.77,23.89,35.44,51.36,46.3,81a18.17,18.17,0,0,1,1.47,7.42c-.86-1.42-1.71-2.85-2.57-4.26-35.49-57.87-80.43-106.81-137.1-144.58A222,222,0,0,0,326,485.33,15.48,15.48,0,0,1,323.8,484.21Zm98.11-85.31c-14.29,6.9-24-2.66-34.78-9.55,3.83,5.34,7.74,10.48,12.69,14.29,8.13,6.28,16.79,4.35,22.77-4.13l.36-1.17Z"/>
  <path class="cls-2" d="M551.09,239.23q5,13.22,10,26.44c1,2.25,1.84,4.53,2.91,6.72q2.94,6.06,6.06,12c4.16,8,5.57,15.79-.29,23.87-3.26,4.49-1.85,8.88,1.8,13.09,9.39,10.81,18.57,21.82,27.62,32.92,6.31,7.74,4.47,15.66-4.5,20.1-3,1.47-6.35,2.06-9.32,3.51-12.27,6-24.6,11.93-36.61,18.43-6.44,3.49-7.74,10.33-9,17.06-.74,4-2.57,7.9-4.35,13.12-3.53-4.42-6.19-7.18-8.18-10.37-5-7.94-12.22-12.91-20.26-17.22-6.88-3.7-13.53-7.85-20.17-12-16-9.93-27-23.1-27.34-43.05-.18-10.8-.88-21.6-.79-32.39.06-6.76,3.46-12.44,8.18-17.19a81.78,81.78,0,0,1,9.56-8.79c11.33-8.25,13.1-19.3,10-32-2.12-8.78-2.33-9.4,6.15-12.68a298.52,298.52,0,0,1,34.52-11.14,29.09,29.09,0,0,1,15.68.91C546.2,231.8,548.39,236.26,551.09,239.23Z"/>
  <path class="cls-3" d="M270.84,536.07l15.29-9.75c20.45,3.26,39.9,9.37,57.86,19.84-15.68-3.48-31.19-4.41-46.82-.32-19.07,5-34.63,15.9-48.84,29-12.56,11.59-22.83,25.08-32,39.44a44.15,44.15,0,0,1-3.37,4.14l-1.57-1c4.86-9.88,9.37-20,14.66-29.61C237.24,567.41,252.93,550.75,270.84,536.07Z"/>
  <path class="cls-3" d="M578.7,412.16c3.14,4.43,6.49,8.57,3.83,14.84a50.57,50.57,0,0,1-5.63,0c-5.2-.57-6.89,2.5-6.95,6.85,0,2.79,1.06,5.64.8,8.38s-1,5.76-2.7,7.47c-.93.92-4.6-.19-6.62-1.21-6.16-3.12-9.44-8.39-9.33-15.32.18-11.57,3.73-21.25,15.6-25.88,4.95-1.93,9.84-4,14.79-6C586,404.2,586,404.25,578.7,412.16Z"/>
  <path class="cls-1" d="M264,249l1-.61.11.43L264,249Z"/>
  <path class="cls-1" d="M267.59,270.58l1.07-.05-.48.64Z"/>
  <path class="cls-4" d="M421.91,398.9l1-.56-.36,1.17A8,8,0,0,1,421.91,398.9Z"/>
</svg>
